<svg xmlns="http://www.w3.org/2000/svg" xmlns:xlink="http://www.w3.org/1999/xlink" width="1145" height="1343.009" viewBox="0 0 1145 1343.009">
  <defs>
    <clipPath id="clip-path">
      <rect width="897.343" height="2.723" fill="none"/>
    </clipPath>
    <clipPath id="clip-path-2">
      <rect width="150.464" height="2.723" fill="none"/>
    </clipPath>
    <clipPath id="clip-path-3">
      <rect width="927.3" height="2.723" fill="none"/>
    </clipPath>
    <clipPath id="clip-path-5">
      <rect width="980.406" height="2.723" fill="none"/>
    </clipPath>
    <clipPath id="clip-path-8">
      <rect width="100.888" height="2.723" fill="none"/>
    </clipPath>
    <clipPath id="clip-path-12">
      <rect width="118.407" height="2.723" fill="none"/>
    </clipPath>
    <clipPath id="clip-path-16">
      <rect width="98.165" height="2.723" fill="none"/>
    </clipPath>
  </defs>
  <g id="Group_232" data-name="Group 232" transform="translate(-440 -3871.542)">
    <text id="Courses" transform="translate(455.448 3871.542)" fill="#333" font-size="30" font-family="Poppins-Bold, Poppins" font-weight="700"><tspan x="-63.495" y="32">Courses</tspan></text>
    <text id="Training" transform="translate(1435 4059)" fill="#333" font-size="30" font-family="Poppins-Bold, Poppins" font-weight="700"><tspan x="-64.725" y="32">Training</tspan></text>
    <text id="Test" transform="translate(502 4427)" fill="#333" font-size="30" font-family="Poppins-Bold, Poppins" font-weight="700"><tspan x="-32.565" y="32">Test</tspan></text>
    <text id="Certificate" transform="translate(1411 4621)" fill="#333" font-size="30" font-family="Poppins-Bold, Poppins" font-weight="700"><tspan x="-82.02" y="32">Certificate</tspan></text>
    <text id="Internship" transform="translate(440 4948)" fill="#333" font-size="30" font-family="Poppins-Bold, Poppins" font-weight="700"><tspan x="-79.485" y="32">Internship</tspan></text>
    <text id="Job" transform="translate(1468 5030)" fill="#333" font-size="30" font-family="Poppins-Bold, Poppins" font-weight="700"><tspan x="-28.41" y="32">Job</tspan></text>
    <g id="Group_227" data-name="Group 227" transform="translate(615.937 3893.042)">
      <g id="Repeat_Grid_1" data-name="Repeat Grid 1" clip-path="url(#clip-path)">
        <g transform="translate(-1597.579 -4199.5)">
          <path id="Path_432" data-name="Path 432" d="M1597.579,4200h32.5" fill="none" stroke="#707070" stroke-width="15"/>
        </g>
        <g transform="translate(-1544.579 -4199.5)">
          <path id="Path_432-2" data-name="Path 432" d="M1597.579,4200h32.5" fill="none" stroke="#707070" stroke-width="15"/>
        </g>
        <g transform="translate(-1491.579 -4199.5)">
          <path id="Path_432-3" data-name="Path 432" d="M1597.579,4200h32.5" fill="none" stroke="#707070" stroke-width="15"/>
        </g>
        <g transform="translate(-1438.579 -4199.5)">
          <path id="Path_432-4" data-name="Path 432" d="M1597.579,4200h32.5" fill="none" stroke="#707070" stroke-width="15"/>
        </g>
        <g transform="translate(-1385.579 -4199.5)">
          <path id="Path_432-5" data-name="Path 432" d="M1597.579,4200h32.5" fill="none" stroke="#707070" stroke-width="15"/>
        </g>
        <g transform="translate(-1332.579 -4199.5)">
          <path id="Path_432-6" data-name="Path 432" d="M1597.579,4200h32.5" fill="none" stroke="#707070" stroke-width="15"/>
        </g>
        <g transform="translate(-1279.579 -4199.5)">
          <path id="Path_432-7" data-name="Path 432" d="M1597.579,4200h32.5" fill="none" stroke="#707070" stroke-width="15"/>
        </g>
        <g transform="translate(-1226.579 -4199.5)">
          <path id="Path_432-8" data-name="Path 432" d="M1597.579,4200h32.5" fill="none" stroke="#707070" stroke-width="15"/>
        </g>
        <g transform="translate(-1173.579 -4199.5)">
          <path id="Path_432-9" data-name="Path 432" d="M1597.579,4200h32.5" fill="none" stroke="#707070" stroke-width="15"/>
        </g>
        <g transform="translate(-1120.579 -4199.5)">
          <path id="Path_432-10" data-name="Path 432" d="M1597.579,4200h32.5" fill="none" stroke="#707070" stroke-width="15"/>
        </g>
        <g transform="translate(-1067.579 -4199.5)">
          <path id="Path_432-11" data-name="Path 432" d="M1597.579,4200h32.5" fill="none" stroke="#707070" stroke-width="15"/>
        </g>
        <g transform="translate(-1014.579 -4199.5)">
          <path id="Path_432-12" data-name="Path 432" d="M1597.579,4200h32.5" fill="none" stroke="#707070" stroke-width="15"/>
        </g>
        <g transform="translate(-961.579 -4199.5)">
          <path id="Path_432-13" data-name="Path 432" d="M1597.579,4200h32.5" fill="none" stroke="#707070" stroke-width="15"/>
        </g>
        <g transform="translate(-908.579 -4199.5)">
          <path id="Path_432-14" data-name="Path 432" d="M1597.579,4200h32.5" fill="none" stroke="#707070" stroke-width="15"/>
        </g>
        <g transform="translate(-855.579 -4199.5)">
          <path id="Path_432-15" data-name="Path 432" d="M1597.579,4200h32.5" fill="none" stroke="#707070" stroke-width="15"/>
        </g>
        <g transform="translate(-802.579 -4199.5)">
          <path id="Path_432-16" data-name="Path 432" d="M1597.579,4200h32.5" fill="none" stroke="#707070" stroke-width="15"/>
        </g>
        <g transform="translate(-749.579 -4199.5)">
          <path id="Path_432-17" data-name="Path 432" d="M1597.579,4200h32.5" fill="none" stroke="#707070" stroke-width="15"/>
        </g>
      </g>
      <g id="Repeat_Grid_2" data-name="Repeat Grid 2" transform="translate(900.067 8.853) rotate(90)" clip-path="url(#clip-path-2)">
        <g transform="translate(-1597.579 -4199.5)">
          <path id="Path_432-18" data-name="Path 432" d="M1630.076,4200h-32.5" transform="translate(0 0)" fill="none" stroke="#707070" stroke-width="15"/>
        </g>
        <g transform="translate(-1544.579 -4199.5)">
          <path id="Path_432-19" data-name="Path 432" d="M1630.076,4200h-32.5" transform="translate(0 0)" fill="none" stroke="#707070" stroke-width="15"/>
        </g>
        <g transform="translate(-1491.579 -4199.5)">
          <path id="Path_432-20" data-name="Path 432" d="M1630.076,4200h-32.5" transform="translate(0 0)" fill="none" stroke="#707070" stroke-width="15"/>
        </g>
      </g>
    </g>
    <g id="Group_228" data-name="Group 228" transform="translate(576.448 4455.416)">
      <g id="Repeat_Grid_1-2" data-name="Repeat Grid 1" transform="translate(0 0)" clip-path="url(#clip-path-3)">
        <g transform="translate(-1597.579 -4199.5)">
          <path id="Path_432-21" data-name="Path 432" d="M1597.579,4200h32.5" fill="none" stroke="#707070" stroke-width="15"/>
        </g>
        <g transform="translate(-1544.579 -4199.5)">
          <path id="Path_432-22" data-name="Path 432" d="M1597.579,4200h32.5" fill="none" stroke="#707070" stroke-width="15"/>
        </g>
        <g transform="translate(-1491.579 -4199.5)">
          <path id="Path_432-23" data-name="Path 432" d="M1597.579,4200h32.5" fill="none" stroke="#707070" stroke-width="15"/>
        </g>
        <g transform="translate(-1438.579 -4199.5)">
          <path id="Path_432-24" data-name="Path 432" d="M1597.579,4200h32.5" fill="none" stroke="#707070" stroke-width="15"/>
        </g>
        <g transform="translate(-1385.579 -4199.5)">
          <path id="Path_432-25" data-name="Path 432" d="M1597.579,4200h32.5" fill="none" stroke="#707070" stroke-width="15"/>
        </g>
        <g transform="translate(-1332.579 -4199.5)">
          <path id="Path_432-26" data-name="Path 432" d="M1597.579,4200h32.5" fill="none" stroke="#707070" stroke-width="15"/>
        </g>
        <g transform="translate(-1279.579 -4199.5)">
          <path id="Path_432-27" data-name="Path 432" d="M1597.579,4200h32.5" fill="none" stroke="#707070" stroke-width="15"/>
        </g>
        <g transform="translate(-1226.579 -4199.5)">
          <path id="Path_432-28" data-name="Path 432" d="M1597.579,4200h32.5" fill="none" stroke="#707070" stroke-width="15"/>
        </g>
        <g transform="translate(-1173.579 -4199.5)">
          <path id="Path_432-29" data-name="Path 432" d="M1597.579,4200h32.5" fill="none" stroke="#707070" stroke-width="15"/>
        </g>
        <g transform="translate(-1120.579 -4199.5)">
          <path id="Path_432-30" data-name="Path 432" d="M1597.579,4200h32.5" fill="none" stroke="#707070" stroke-width="15"/>
        </g>
        <g transform="translate(-1067.579 -4199.5)">
          <path id="Path_432-31" data-name="Path 432" d="M1597.579,4200h32.5" fill="none" stroke="#707070" stroke-width="15"/>
        </g>
        <g transform="translate(-1014.579 -4199.5)">
          <path id="Path_432-32" data-name="Path 432" d="M1597.579,4200h32.5" fill="none" stroke="#707070" stroke-width="15"/>
        </g>
        <g transform="translate(-961.579 -4199.5)">
          <path id="Path_432-33" data-name="Path 432" d="M1597.579,4200h32.5" fill="none" stroke="#707070" stroke-width="15"/>
        </g>
        <g transform="translate(-908.579 -4199.5)">
          <path id="Path_432-34" data-name="Path 432" d="M1597.579,4200h32.5" fill="none" stroke="#707070" stroke-width="15"/>
        </g>
        <g transform="translate(-855.579 -4199.5)">
          <path id="Path_432-35" data-name="Path 432" d="M1597.579,4200h32.5" fill="none" stroke="#707070" stroke-width="15"/>
        </g>
        <g transform="translate(-802.579 -4199.5)">
          <path id="Path_432-36" data-name="Path 432" d="M1597.579,4200h32.5" fill="none" stroke="#707070" stroke-width="15"/>
        </g>
        <g transform="translate(-749.579 -4199.5)">
          <path id="Path_432-37" data-name="Path 432" d="M1597.579,4200h32.5" fill="none" stroke="#707070" stroke-width="15"/>
        </g>
        <g transform="translate(-696.579 -4199.5)">
          <path id="Path_432-38" data-name="Path 432" d="M1597.579,4200h32.5" fill="none" stroke="#707070" stroke-width="15"/>
        </g>
      </g>
      <g id="Repeat_Grid_2-2" data-name="Repeat Grid 2" transform="translate(930.024 8.853) rotate(90)" clip-path="url(#clip-path-2)">
        <g transform="translate(-1597.579 -4199.5)">
          <path id="Path_432-39" data-name="Path 432" d="M1630.076,4200h-32.5" transform="translate(0 0)" fill="none" stroke="#707070" stroke-width="15"/>
        </g>
        <g transform="translate(-1544.579 -4199.5)">
          <path id="Path_432-40" data-name="Path 432" d="M1630.076,4200h-32.5" transform="translate(0 0)" fill="none" stroke="#707070" stroke-width="15"/>
        </g>
        <g transform="translate(-1491.579 -4199.5)">
          <path id="Path_432-41" data-name="Path 432" d="M1630.076,4200h-32.5" transform="translate(0 0)" fill="none" stroke="#707070" stroke-width="15"/>
        </g>
      </g>
    </g>
    <g id="Group_229" data-name="Group 229" transform="translate(528.787 4112.148)">
      <g id="Repeat_Grid_1-3" data-name="Repeat Grid 1" transform="translate(2.723 106.335)" clip-path="url(#clip-path-5)">
        <g transform="translate(-1597.579 -4199.5)">
          <path id="Path_432-42" data-name="Path 432" d="M1597.579,4200h32.5" fill="none" stroke="#707070" stroke-width="15"/>
        </g>
        <g transform="translate(-1544.579 -4199.5)">
          <path id="Path_432-43" data-name="Path 432" d="M1597.579,4200h32.5" fill="none" stroke="#707070" stroke-width="15"/>
        </g>
        <g transform="translate(-1491.579 -4199.5)">
          <path id="Path_432-44" data-name="Path 432" d="M1597.579,4200h32.5" fill="none" stroke="#707070" stroke-width="15"/>
        </g>
        <g transform="translate(-1438.579 -4199.5)">
          <path id="Path_432-45" data-name="Path 432" d="M1597.579,4200h32.5" fill="none" stroke="#707070" stroke-width="15"/>
        </g>
        <g transform="translate(-1385.579 -4199.5)">
          <path id="Path_432-46" data-name="Path 432" d="M1597.579,4200h32.5" fill="none" stroke="#707070" stroke-width="15"/>
        </g>
        <g transform="translate(-1332.579 -4199.5)">
          <path id="Path_432-47" data-name="Path 432" d="M1597.579,4200h32.5" fill="none" stroke="#707070" stroke-width="15"/>
        </g>
        <g transform="translate(-1279.579 -4199.5)">
          <path id="Path_432-48" data-name="Path 432" d="M1597.579,4200h32.5" fill="none" stroke="#707070" stroke-width="15"/>
        </g>
        <g transform="translate(-1226.579 -4199.5)">
          <path id="Path_432-49" data-name="Path 432" d="M1597.579,4200h32.5" fill="none" stroke="#707070" stroke-width="15"/>
        </g>
        <g transform="translate(-1173.579 -4199.5)">
          <path id="Path_432-50" data-name="Path 432" d="M1597.579,4200h32.5" fill="none" stroke="#707070" stroke-width="15"/>
        </g>
        <g transform="translate(-1120.579 -4199.5)">
          <path id="Path_432-51" data-name="Path 432" d="M1597.579,4200h32.5" fill="none" stroke="#707070" stroke-width="15"/>
        </g>
        <g transform="translate(-1067.579 -4199.5)">
          <path id="Path_432-52" data-name="Path 432" d="M1597.579,4200h32.5" fill="none" stroke="#707070" stroke-width="15"/>
        </g>
        <g transform="translate(-1014.579 -4199.5)">
          <path id="Path_432-53" data-name="Path 432" d="M1597.579,4200h32.5" fill="none" stroke="#707070" stroke-width="15"/>
        </g>
        <g transform="translate(-961.579 -4199.5)">
          <path id="Path_432-54" data-name="Path 432" d="M1597.579,4200h32.5" fill="none" stroke="#707070" stroke-width="15"/>
        </g>
        <g transform="translate(-908.579 -4199.5)">
          <path id="Path_432-55" data-name="Path 432" d="M1597.579,4200h32.5" fill="none" stroke="#707070" stroke-width="15"/>
        </g>
        <g transform="translate(-855.579 -4199.5)">
          <path id="Path_432-56" data-name="Path 432" d="M1597.579,4200h32.5" fill="none" stroke="#707070" stroke-width="15"/>
        </g>
        <g transform="translate(-802.579 -4199.5)">
          <path id="Path_432-57" data-name="Path 432" d="M1597.579,4200h32.5" fill="none" stroke="#707070" stroke-width="15"/>
        </g>
        <g transform="translate(-749.579 -4199.5)">
          <path id="Path_432-58" data-name="Path 432" d="M1597.579,4200h32.5" fill="none" stroke="#707070" stroke-width="15"/>
        </g>
        <g transform="translate(-696.579 -4199.5)">
          <path id="Path_432-59" data-name="Path 432" d="M1597.579,4200h32.5" fill="none" stroke="#707070" stroke-width="15"/>
        </g>
        <g transform="translate(-643.579 -4199.5)">
          <path id="Path_432-60" data-name="Path 432" d="M1597.579,4200h32.5" fill="none" stroke="#707070" stroke-width="15"/>
        </g>
      </g>
      <g id="Repeat_Grid_2-3" data-name="Repeat Grid 2" transform="translate(0 265.652) rotate(-90)" clip-path="url(#clip-path-2)">
        <g transform="translate(-1597.579 -4199.5)">
          <path id="Path_432-61" data-name="Path 432" d="M1630.076,4200h-32.5" transform="translate(0 0)" fill="none" stroke="#707070" stroke-width="15"/>
        </g>
        <g transform="translate(-1544.579 -4199.5)">
          <path id="Path_432-62" data-name="Path 432" d="M1630.076,4200h-32.5" transform="translate(0 0)" fill="none" stroke="#707070" stroke-width="15"/>
        </g>
        <g transform="translate(-1491.579 -4199.5)">
          <path id="Path_432-63" data-name="Path 432" d="M1630.076,4200h-32.5" transform="translate(0 0)" fill="none" stroke="#707070" stroke-width="15"/>
        </g>
      </g>
      <g id="Repeat_Grid_3" data-name="Repeat Grid 3" transform="translate(0 311.266) rotate(-90)" clip-path="url(#clip-path-2)">
        <g transform="translate(-1597.579 -4199.5)">
          <path id="Path_432-64" data-name="Path 432" d="M1630.076,4200h-32.5" transform="translate(0 0)" fill="none" stroke="#707070" stroke-width="15"/>
        </g>
        <g transform="translate(-1544.579 -4199.5)">
          <path id="Path_432-65" data-name="Path 432" d="M1630.076,4200h-32.5" transform="translate(0 0)" fill="none" stroke="#707070" stroke-width="15"/>
        </g>
        <g transform="translate(-1491.579 -4199.5)">
          <path id="Path_432-66" data-name="Path 432" d="M1630.076,4200h-32.5" transform="translate(0 0)" fill="none" stroke="#707070" stroke-width="15"/>
        </g>
      </g>
      <g id="Repeat_Grid_4" data-name="Repeat Grid 4" transform="translate(984.491 100.888) rotate(-90)" clip-path="url(#clip-path-8)">
        <g transform="translate(-1597.579 -4199.5)">
          <path id="Path_432-67" data-name="Path 432" d="M1630.076,4200h-32.5" transform="translate(0 0)" fill="none" stroke="#707070" stroke-width="15"/>
        </g>
        <g transform="translate(-1544.579 -4199.5)">
          <path id="Path_432-68" data-name="Path 432" d="M1630.076,4200h-32.5" transform="translate(0 0)" fill="none" stroke="#707070" stroke-width="15"/>
        </g>
      </g>
    </g>
    <g id="Group_231" data-name="Group 231" transform="translate(519.258 5009.62)">
      <g id="Repeat_Grid_1-4" data-name="Repeat Grid 1" transform="translate(2.723 202.208)" clip-path="url(#clip-path-5)">
        <g transform="translate(-1597.579 -4199.5)">
          <path id="Path_432-69" data-name="Path 432" d="M1597.579,4200h32.5" fill="none" stroke="#707070" stroke-width="15"/>
        </g>
        <g transform="translate(-1544.579 -4199.5)">
          <path id="Path_432-70" data-name="Path 432" d="M1597.579,4200h32.5" fill="none" stroke="#707070" stroke-width="15"/>
        </g>
        <g transform="translate(-1491.579 -4199.5)">
          <path id="Path_432-71" data-name="Path 432" d="M1597.579,4200h32.5" fill="none" stroke="#707070" stroke-width="15"/>
        </g>
        <g transform="translate(-1438.579 -4199.5)">
          <path id="Path_432-72" data-name="Path 432" d="M1597.579,4200h32.5" fill="none" stroke="#707070" stroke-width="15"/>
        </g>
        <g transform="translate(-1385.579 -4199.5)">
          <path id="Path_432-73" data-name="Path 432" d="M1597.579,4200h32.5" fill="none" stroke="#707070" stroke-width="15"/>
        </g>
        <g transform="translate(-1332.579 -4199.5)">
          <path id="Path_432-74" data-name="Path 432" d="M1597.579,4200h32.5" fill="none" stroke="#707070" stroke-width="15"/>
        </g>
        <g transform="translate(-1279.579 -4199.5)">
          <path id="Path_432-75" data-name="Path 432" d="M1597.579,4200h32.5" fill="none" stroke="#707070" stroke-width="15"/>
        </g>
        <g transform="translate(-1226.579 -4199.5)">
          <path id="Path_432-76" data-name="Path 432" d="M1597.579,4200h32.5" fill="none" stroke="#707070" stroke-width="15"/>
        </g>
        <g transform="translate(-1173.579 -4199.5)">
          <path id="Path_432-77" data-name="Path 432" d="M1597.579,4200h32.5" fill="none" stroke="#707070" stroke-width="15"/>
        </g>
        <g transform="translate(-1120.579 -4199.5)">
          <path id="Path_432-78" data-name="Path 432" d="M1597.579,4200h32.5" fill="none" stroke="#707070" stroke-width="15"/>
        </g>
        <g transform="translate(-1067.579 -4199.5)">
          <path id="Path_432-79" data-name="Path 432" d="M1597.579,4200h32.5" fill="none" stroke="#707070" stroke-width="15"/>
        </g>
        <g transform="translate(-1014.579 -4199.5)">
          <path id="Path_432-80" data-name="Path 432" d="M1597.579,4200h32.5" fill="none" stroke="#707070" stroke-width="15"/>
        </g>
        <g transform="translate(-961.579 -4199.5)">
          <path id="Path_432-81" data-name="Path 432" d="M1597.579,4200h32.5" fill="none" stroke="#707070" stroke-width="15"/>
        </g>
        <g transform="translate(-908.579 -4199.5)">
          <path id="Path_432-82" data-name="Path 432" d="M1597.579,4200h32.5" fill="none" stroke="#707070" stroke-width="15"/>
        </g>
        <g transform="translate(-855.579 -4199.5)">
          <path id="Path_432-83" data-name="Path 432" d="M1597.579,4200h32.5" fill="none" stroke="#707070" stroke-width="15"/>
        </g>
        <g transform="translate(-802.579 -4199.5)">
          <path id="Path_432-84" data-name="Path 432" d="M1597.579,4200h32.5" fill="none" stroke="#707070" stroke-width="15"/>
        </g>
        <g transform="translate(-749.579 -4199.5)">
          <path id="Path_432-85" data-name="Path 432" d="M1597.579,4200h32.5" fill="none" stroke="#707070" stroke-width="15"/>
        </g>
        <g transform="translate(-696.579 -4199.5)">
          <path id="Path_432-86" data-name="Path 432" d="M1597.579,4200h32.5" fill="none" stroke="#707070" stroke-width="15"/>
        </g>
        <g transform="translate(-643.579 -4199.5)">
          <path id="Path_432-87" data-name="Path 432" d="M1597.579,4200h32.5" fill="none" stroke="#707070" stroke-width="15"/>
        </g>
      </g>
      <g id="Repeat_Grid_2-4" data-name="Repeat Grid 2" transform="translate(0 196.078) rotate(-90)" clip-path="url(#clip-path-2)">
        <g transform="translate(-1597.579 -4199.5)">
          <path id="Path_432-88" data-name="Path 432" d="M1630.076,4200h-32.5" transform="translate(0 0)" fill="none" stroke="#707070" stroke-width="15"/>
        </g>
        <g transform="translate(-1544.579 -4199.5)">
          <path id="Path_432-89" data-name="Path 432" d="M1630.076,4200h-32.5" transform="translate(0 0)" fill="none" stroke="#707070" stroke-width="15"/>
        </g>
        <g transform="translate(-1491.579 -4199.5)">
          <path id="Path_432-90" data-name="Path 432" d="M1630.076,4200h-32.5" transform="translate(0 0)" fill="none" stroke="#707070" stroke-width="15"/>
        </g>
      </g>
      <g id="Repeat_Grid_3-2" data-name="Repeat Grid 3" transform="translate(0 150.464) rotate(-90)" clip-path="url(#clip-path-2)">
        <g transform="translate(-1597.579 -4199.5)">
          <path id="Path_432-91" data-name="Path 432" d="M1630.076,4200h-32.5" transform="translate(0 0)" fill="none" stroke="#707070" stroke-width="15"/>
        </g>
        <g transform="translate(-1544.579 -4199.5)">
          <path id="Path_432-92" data-name="Path 432" d="M1630.076,4200h-32.5" transform="translate(0 0)" fill="none" stroke="#707070" stroke-width="15"/>
        </g>
        <g transform="translate(-1491.579 -4199.5)">
          <path id="Path_432-93" data-name="Path 432" d="M1630.076,4200h-32.5" transform="translate(0 0)" fill="none" stroke="#707070" stroke-width="15"/>
        </g>
      </g>
      <g id="Repeat_Grid_4-2" data-name="Repeat Grid 4" transform="translate(984.491 196.885) rotate(-90)" clip-path="url(#clip-path-12)">
        <g transform="translate(-1597.579 -4199.5)">
          <path id="Path_432-94" data-name="Path 432" d="M1630.076,4200h-32.5" transform="translate(0 0)" fill="none" stroke="#707070" stroke-width="15"/>
        </g>
        <g transform="translate(-1544.579 -4199.5)">
          <path id="Path_432-95" data-name="Path 432" d="M1630.076,4200h-32.5" transform="translate(0 0)" fill="none" stroke="#707070" stroke-width="15"/>
        </g>
        <g transform="translate(-1491.579 -4199.5)">
          <path id="Path_432-96" data-name="Path 432" d="M1630.076,4200h-32.5" transform="translate(0 0)" fill="none" stroke="#707070" stroke-width="15"/>
        </g>
      </g>
    </g>
    <g id="Group_230" data-name="Group 230" transform="translate(519.258 4671.799)">
      <g id="Repeat_Grid_1-5" data-name="Repeat Grid 1" transform="translate(2.723 103.612)" clip-path="url(#clip-path-5)">
        <g transform="translate(-1597.579 -4199.5)">
          <path id="Path_432-97" data-name="Path 432" d="M1597.579,4200h32.5" fill="none" stroke="#707070" stroke-width="15"/>
        </g>
        <g transform="translate(-1544.579 -4199.5)">
          <path id="Path_432-98" data-name="Path 432" d="M1597.579,4200h32.5" fill="none" stroke="#707070" stroke-width="15"/>
        </g>
        <g transform="translate(-1491.579 -4199.5)">
          <path id="Path_432-99" data-name="Path 432" d="M1597.579,4200h32.5" fill="none" stroke="#707070" stroke-width="15"/>
        </g>
        <g transform="translate(-1438.579 -4199.5)">
          <path id="Path_432-100" data-name="Path 432" d="M1597.579,4200h32.5" fill="none" stroke="#707070" stroke-width="15"/>
        </g>
        <g transform="translate(-1385.579 -4199.5)">
          <path id="Path_432-101" data-name="Path 432" d="M1597.579,4200h32.5" fill="none" stroke="#707070" stroke-width="15"/>
        </g>
        <g transform="translate(-1332.579 -4199.5)">
          <path id="Path_432-102" data-name="Path 432" d="M1597.579,4200h32.5" fill="none" stroke="#707070" stroke-width="15"/>
        </g>
        <g transform="translate(-1279.579 -4199.5)">
          <path id="Path_432-103" data-name="Path 432" d="M1597.579,4200h32.5" fill="none" stroke="#707070" stroke-width="15"/>
        </g>
        <g transform="translate(-1226.579 -4199.5)">
          <path id="Path_432-104" data-name="Path 432" d="M1597.579,4200h32.5" fill="none" stroke="#707070" stroke-width="15"/>
        </g>
        <g transform="translate(-1173.579 -4199.5)">
          <path id="Path_432-105" data-name="Path 432" d="M1597.579,4200h32.5" fill="none" stroke="#707070" stroke-width="15"/>
        </g>
        <g transform="translate(-1120.579 -4199.5)">
          <path id="Path_432-106" data-name="Path 432" d="M1597.579,4200h32.5" fill="none" stroke="#707070" stroke-width="15"/>
        </g>
        <g transform="translate(-1067.579 -4199.5)">
          <path id="Path_432-107" data-name="Path 432" d="M1597.579,4200h32.5" fill="none" stroke="#707070" stroke-width="15"/>
        </g>
        <g transform="translate(-1014.579 -4199.5)">
          <path id="Path_432-108" data-name="Path 432" d="M1597.579,4200h32.5" fill="none" stroke="#707070" stroke-width="15"/>
        </g>
        <g transform="translate(-961.579 -4199.5)">
          <path id="Path_432-109" data-name="Path 432" d="M1597.579,4200h32.5" fill="none" stroke="#707070" stroke-width="15"/>
        </g>
        <g transform="translate(-908.579 -4199.5)">
          <path id="Path_432-110" data-name="Path 432" d="M1597.579,4200h32.5" fill="none" stroke="#707070" stroke-width="15"/>
        </g>
        <g transform="translate(-855.579 -4199.5)">
          <path id="Path_432-111" data-name="Path 432" d="M1597.579,4200h32.5" fill="none" stroke="#707070" stroke-width="15"/>
        </g>
        <g transform="translate(-802.579 -4199.5)">
          <path id="Path_432-112" data-name="Path 432" d="M1597.579,4200h32.5" fill="none" stroke="#707070" stroke-width="15"/>
        </g>
        <g transform="translate(-749.579 -4199.5)">
          <path id="Path_432-113" data-name="Path 432" d="M1597.579,4200h32.5" fill="none" stroke="#707070" stroke-width="15"/>
        </g>
        <g transform="translate(-696.579 -4199.5)">
          <path id="Path_432-114" data-name="Path 432" d="M1597.579,4200h32.5" fill="none" stroke="#707070" stroke-width="15"/>
        </g>
        <g transform="translate(-643.579 -4199.5)">
          <path id="Path_432-115" data-name="Path 432" d="M1597.579,4200h32.5" fill="none" stroke="#707070" stroke-width="15"/>
        </g>
      </g>
      <g id="Repeat_Grid_2-5" data-name="Repeat Grid 2" transform="translate(0 262.929) rotate(-90)" clip-path="url(#clip-path-2)">
        <g transform="translate(-1597.579 -4199.5)">
          <path id="Path_432-116" data-name="Path 432" d="M1630.076,4200h-32.5" transform="translate(0 0)" fill="none" stroke="#707070" stroke-width="15"/>
        </g>
        <g transform="translate(-1544.579 -4199.5)">
          <path id="Path_432-117" data-name="Path 432" d="M1630.076,4200h-32.5" transform="translate(0 0)" fill="none" stroke="#707070" stroke-width="15"/>
        </g>
        <g transform="translate(-1491.579 -4199.5)">
          <path id="Path_432-118" data-name="Path 432" d="M1630.076,4200h-32.5" transform="translate(0 0)" fill="none" stroke="#707070" stroke-width="15"/>
        </g>
      </g>
      <g id="Repeat_Grid_3-3" data-name="Repeat Grid 3" transform="translate(0 256.799) rotate(-90)" clip-path="url(#clip-path-2)">
        <g transform="translate(-1597.579 -4199.5)">
          <path id="Path_432-119" data-name="Path 432" d="M1630.076,4200h-32.5" transform="translate(0 0)" fill="none" stroke="#707070" stroke-width="15"/>
        </g>
        <g transform="translate(-1544.579 -4199.5)">
          <path id="Path_432-120" data-name="Path 432" d="M1630.076,4200h-32.5" transform="translate(0 0)" fill="none" stroke="#707070" stroke-width="15"/>
        </g>
        <g transform="translate(-1491.579 -4199.5)">
          <path id="Path_432-121" data-name="Path 432" d="M1630.076,4200h-32.5" transform="translate(0 0)" fill="none" stroke="#707070" stroke-width="15"/>
        </g>
      </g>
      <g id="Repeat_Grid_4-3" data-name="Repeat Grid 4" transform="translate(984.491 98.165) rotate(-90)" clip-path="url(#clip-path-16)">
        <g transform="translate(-1597.579 -4199.5)">
          <path id="Path_432-122" data-name="Path 432" d="M1630.076,4200h-32.5" transform="translate(0 0)" fill="none" stroke="#707070" stroke-width="15"/>
        </g>
        <g transform="translate(-1544.579 -4199.5)">
          <path id="Path_432-123" data-name="Path 432" d="M1630.076,4200h-32.5" transform="translate(0 0)" fill="none" stroke="#707070" stroke-width="15"/>
        </g>
      </g>
    </g>
  </g>
</svg>
