<svg id="stars" xmlns="http://www.w3.org/2000/svg" width="128.934" height="21.175" viewBox="0 0 128.934 21.175">
  <g id="Group_4422" data-name="Group 4422">
    <g id="Group_4417" data-name="Group 4417">
      <path id="Path_20654" data-name="Path 20654" d="M276.643,167.367l-7.692-1.117-3.44,4.735Z" transform="translate(-254.378 -159.279)" fill="#fecc3a"/>
      <path id="Path_20655" data-name="Path 20655" d="M265.51,279.17h0v5.853l6.88,3.617-6.88-9.47Z" transform="translate(-254.378 -267.465)" fill="#febf1d"/>
      <path id="Path_20656" data-name="Path 20656" d="M101.41,288.64l6.881-3.617V279.17Z" transform="translate(-97.158 -267.465)" fill="#fdb300"/>
      <path id="Path_20657" data-name="Path 20657" d="M108.291,279.17l-5.566,1.809-1.314,7.661,6.881-9.47Z" transform="translate(-97.158 -267.465)" fill="#fecc3a"/>
      <path id="Path_20658" data-name="Path 20658" d="M272.39,288.64l-1.314-7.661-5.566-1.809Z" transform="translate(-254.378 -267.465)" fill="#fecc3a"/>
      <path id="Path_20659" data-name="Path 20659" d="M265.51,11.705h0l3.44-4.735L265.51,0Z" transform="translate(-254.378)" fill="#febf1d"/>
      <path id="Path_20660" data-name="Path 20660" d="M265.51,196.517h0l5.566,1.809,5.566-5.426Z" transform="translate(-254.378 -184.812)" fill="#febf1d"/>
      <path id="Path_20661" data-name="Path 20661" d="M186.91,0l-3.44,6.971,3.44,4.735Z" transform="translate(-175.777)" fill="#fecc3a"/>
      <path id="Path_20662" data-name="Path 20662" d="M11.133,196.517,0,192.9l5.566,5.426,5.566-1.809Z" transform="translate(0 -184.812)" fill="#febf1d"/>
      <path id="Path_20663" data-name="Path 20663" d="M11.133,170.985l-3.44-4.735L0,167.367l11.133,3.617Z" transform="translate(0 -159.279)" fill="#ffd857"/>
    </g>
    <g id="Group_4418" data-name="Group 4418" transform="translate(26.668)">
      <path id="Path_20664" data-name="Path 20664" d="M912.662,167.367l-7.692-1.117-3.44,4.735Z" transform="translate(-890.398 -159.279)" fill="#fecc3a"/>
      <path id="Path_20665" data-name="Path 20665" d="M901.52,279.17h0v5.853l6.88,3.617-6.88-9.47Z" transform="translate(-890.388 -267.465)" fill="#febf1d"/>
      <path id="Path_20666" data-name="Path 20666" d="M737.43,288.64l6.88-3.617V279.17Z" transform="translate(-733.178 -267.465)" fill="#fdb300"/>
      <path id="Path_20667" data-name="Path 20667" d="M744.31,279.17l-5.566,1.809-1.314,7.661,6.88-9.47Z" transform="translate(-733.178 -267.465)" fill="#fecc3a"/>
      <path id="Path_20668" data-name="Path 20668" d="M908.41,288.64l-1.314-7.661-5.566-1.809Z" transform="translate(-890.398 -267.465)" fill="#fecc3a"/>
      <path id="Path_20669" data-name="Path 20669" d="M901.52,11.705h0l3.44-4.735L901.52,0Z" transform="translate(-890.388)" fill="#febf1d"/>
      <path id="Path_20670" data-name="Path 20670" d="M901.53,196.517h0l5.566,1.809,5.566-5.426Z" transform="translate(-890.398 -184.812)" fill="#febf1d"/>
      <path id="Path_20671" data-name="Path 20671" d="M822.92,0l-3.44,6.971,3.44,4.735Z" transform="translate(-811.788)" fill="#fecc3a"/>
      <path id="Path_20672" data-name="Path 20672" d="M647.152,196.517,636.02,192.9l5.566,5.426,5.566-1.809Z" transform="translate(-636.02 -184.812)" fill="#febf1d"/>
      <path id="Path_20673" data-name="Path 20673" d="M647.152,170.985l-3.44-4.735-7.692,1.117,11.132,3.617Z" transform="translate(-636.02 -159.279)" fill="#ffd857"/>
    </g>
    <g id="Group_4419" data-name="Group 4419" transform="translate(53.335)">
      <path id="Path_20674" data-name="Path 20674" d="M1548.673,167.367l-7.692-1.117-3.44,4.735Z" transform="translate(-1526.407 -159.279)" fill="#fecc3a"/>
      <path id="Path_20675" data-name="Path 20675" d="M1537.54,279.17h0v5.853l6.88,3.617-6.88-9.47Z" transform="translate(-1526.407 -267.465)" fill="#febf1d"/>
      <path id="Path_20676" data-name="Path 20676" d="M1373.45,288.64l6.88-3.617V279.17Z" transform="translate(-1369.198 -267.465)" fill="#fdb300"/>
      <path id="Path_20677" data-name="Path 20677" d="M1380.33,279.17l-5.566,1.809-1.314,7.661,6.88-9.47Z" transform="translate(-1369.198 -267.465)" fill="#fecc3a"/>
      <path id="Path_20678" data-name="Path 20678" d="M1544.42,288.64l-1.314-7.661-5.566-1.809Z" transform="translate(-1526.407 -267.465)" fill="#fecc3a"/>
      <path id="Path_20679" data-name="Path 20679" d="M1537.54,11.705h0l3.44-4.735L1537.54,0Z" transform="translate(-1526.407)" fill="#febf1d"/>
      <path id="Path_20680" data-name="Path 20680" d="M1537.54,196.517h0l5.566,1.809,5.567-5.426Z" transform="translate(-1526.407 -184.812)" fill="#febf1d"/>
      <path id="Path_20681" data-name="Path 20681" d="M1458.94,0l-3.44,6.971,3.44,4.735Z" transform="translate(-1447.807)" fill="#fecc3a"/>
      <path id="Path_20682" data-name="Path 20682" d="M1283.163,196.517,1272.03,192.9l5.566,5.426,5.566-1.809Z" transform="translate(-1272.03 -184.812)" fill="#febf1d"/>
      <path id="Path_20683" data-name="Path 20683" d="M1283.163,170.985l-3.44-4.735-7.693,1.117,11.133,3.617Z" transform="translate(-1272.03 -159.279)" fill="#ffd857"/>
    </g>
    <g id="Group_4420" data-name="Group 4420" transform="translate(80.002)">
      <path id="Path_20684" data-name="Path 20684" d="M2184.692,167.367,2177,166.25l-3.44,4.735Z" transform="translate(-2162.427 -159.279)" fill="#fecc3a"/>
      <path id="Path_20685" data-name="Path 20685" d="M2173.56,279.17h0v5.853l6.88,3.617-6.88-9.47Z" transform="translate(-2162.427 -267.465)" fill="#febf1d"/>
      <path id="Path_20686" data-name="Path 20686" d="M2009.46,288.64l6.881-3.617V279.17Z" transform="translate(-2005.208 -267.465)" fill="#fdb300"/>
      <path id="Path_20687" data-name="Path 20687" d="M2016.341,279.17l-5.567,1.809-1.314,7.661,6.881-9.47Z" transform="translate(-2005.208 -267.465)" fill="#fecc3a"/>
      <path id="Path_20688" data-name="Path 20688" d="M2180.44,288.64l-1.314-7.661-5.566-1.809Z" transform="translate(-2162.427 -267.465)" fill="#fecc3a"/>
      <path id="Path_20689" data-name="Path 20689" d="M2173.56,11.705h0L2177,6.971,2173.56,0Z" transform="translate(-2162.427)" fill="#febf1d"/>
      <path id="Path_20690" data-name="Path 20690" d="M2173.56,196.517h0l5.566,1.809,5.566-5.426Z" transform="translate(-2162.427 -184.812)" fill="#febf1d"/>
      <path id="Path_20691" data-name="Path 20691" d="M2094.95,0l-3.44,6.971,3.44,4.735Z" transform="translate(-2083.818)" fill="#fecc3a"/>
      <path id="Path_20692" data-name="Path 20692" d="M1919.183,196.517,1908.05,192.9l5.566,5.426,5.567-1.809Z" transform="translate(-1908.05 -184.812)" fill="#febf1d"/>
      <path id="Path_20693" data-name="Path 20693" d="M1919.183,170.985l-3.44-4.735-7.692,1.117,11.133,3.617Z" transform="translate(-1908.05 -159.279)" fill="#ffd857"/>
    </g>
    <g id="Group_4421" data-name="Group 4421" transform="translate(106.669)">
      <path id="Path_20694" data-name="Path 20694" d="M2820.7,167.367l-7.692-1.117-3.44,4.735Z" transform="translate(-2798.438 -159.279)" fill="#fecc3a"/>
      <path id="Path_20695" data-name="Path 20695" d="M2809.57,279.17h0v5.853l6.881,3.617-6.881-9.47Z" transform="translate(-2798.438 -267.465)" fill="#febf1d"/>
      <path id="Path_20696" data-name="Path 20696" d="M2645.48,288.64l6.88-3.617V279.17Z" transform="translate(-2641.228 -267.465)" fill="#fdb300"/>
      <path id="Path_20697" data-name="Path 20697" d="M2652.36,279.17l-5.566,1.809-1.314,7.661,6.88-9.47Z" transform="translate(-2641.228 -267.465)" fill="#fecc3a"/>
      <path id="Path_20698" data-name="Path 20698" d="M2816.451,288.64l-1.314-7.661-5.566-1.809Z" transform="translate(-2798.438 -267.465)" fill="#fecc3a"/>
      <path id="Path_20699" data-name="Path 20699" d="M2809.57,11.705h0l3.44-4.735L2809.57,0Z" transform="translate(-2798.438)" fill="#febf1d"/>
      <path id="Path_20700" data-name="Path 20700" d="M2809.57,196.517h0l5.566,1.809,5.566-5.426Z" transform="translate(-2798.438 -184.812)" fill="#febf1d"/>
      <path id="Path_20701" data-name="Path 20701" d="M2730.97,0l-3.44,6.971,3.44,4.735Z" transform="translate(-2719.837)" fill="#fecc3a"/>
      <path id="Path_20702" data-name="Path 20702" d="M2555.192,196.517,2544.06,192.9l5.566,5.426,5.566-1.809Z" transform="translate(-2544.06 -184.812)" fill="#febf1d"/>
      <path id="Path_20703" data-name="Path 20703" d="M2555.192,170.985l-3.44-4.735-7.693,1.117,11.132,3.617Z" transform="translate(-2544.06 -159.279)" fill="#ffd857"/>
    </g>
  </g>
</svg>
